<mxfile host="Electron" modified="2020-04-10T09:29:25.541Z" agent="5.0 (Macintosh; Intel Mac OS X 10_14_5) AppleWebKit/537.36 (KHTML, like Gecko) draw.io/12.9.9 Chrome/80.0.3987.163 Electron/8.2.1 Safari/537.36" etag="5VXUOnNYjKgLG4t90Rqj" version="12.9.9" type="device">
  <diagram id="MmwPf0iDSc0UJbkOYZ7m" name="Page-1">
    <mxGraphModel dx="1067" dy="746" grid="1" gridSize="10" guides="1" tooltips="1" connect="1" arrows="1" fold="1" page="1" pageScale="1" pageWidth="850" pageHeight="1100" math="0" shadow="0">
      <root>
        <mxCell id="0" />
        <mxCell id="1" parent="0" />
      </root>
    </mxGraphModel>
  </diagram>
</mxfile>
